<svg id="Capa_1" data-name="Capa 1" xmlns="http://www.w3.org/2000/svg" xmlns:xlink="http://www.w3.org/1999/xlink" viewBox="0 0 66 66"><defs><style>.cls-1{fill:url(#radial-gradient);}.cls-2{fill:url(#linear-gradient);}.cls-3{fill:#e16970;}.cls-4{fill:#edeff2;}.cls-5{fill:#ebbf8d;}.cls-6{fill:#765528;}.cls-7{fill:#383834;opacity:0.2;}.cls-8{fill:#dbe0e6;}.cls-9{fill:#886a44;}</style><radialGradient id="radial-gradient" cx="22.14" cy="-15584.31" r="55.78" gradientTransform="matrix(1, 0, 0, -1, 0, -15568)" gradientUnits="userSpaceOnUse"><stop offset="0" stop-color="#fff"/><stop offset="0.6" stop-color="#e3e9ee"/><stop offset="1" stop-color="#a0a7af"/></radialGradient><linearGradient id="linear-gradient" x1="203.1" y1="135.52" x2="258.7" y2="135.52" gradientTransform="translate(-197.91 -102.52)" gradientUnits="userSpaceOnUse"><stop offset="0" stop-color="#edeff2"/><stop offset="1" stop-color="#fff"/></linearGradient></defs><title>Mesa de trabajo 3</title><g id="_Grupo_" data-name="&lt;Grupo&gt;"><g id="_Grupo_2" data-name="&lt;Grupo&gt;"><g id="_Grupo_3" data-name="&lt;Grupo&gt;"><path id="_Trazado_" data-name="&lt;Trazado&gt;" class="cls-1" d="M63,33A30,30,0,1,1,33,3,30,30,0,0,1,63,33Z"/></g><g id="_Grupo_4" data-name="&lt;Grupo&gt;"><circle id="_Trazado_2" data-name="&lt;Trazado&gt;" class="cls-2" cx="33" cy="33" r="27.8" transform="translate(-2.9 62.82) rotate(-84.72)"/></g></g><g id="Archery"><g id="Target"><g id="_Grupo_5" data-name="&lt;Grupo&gt;"><circle id="_Trazado_3" data-name="&lt;Trazado&gt;" class="cls-3" cx="33.57" cy="34.53" r="18.76"/><circle id="_Trazado_4" data-name="&lt;Trazado&gt;" class="cls-4" cx="33.57" cy="34.53" r="15.06"/><circle id="_Trazado_5" data-name="&lt;Trazado&gt;" class="cls-3" cx="33.57" cy="34.53" r="11.19"/><circle id="_Trazado_6" data-name="&lt;Trazado&gt;" class="cls-4" cx="33.57" cy="34.53" r="7.99"/><circle id="_Trazado_7" data-name="&lt;Trazado&gt;" class="cls-3" cx="33.57" cy="34.53" r="4"/></g></g><g id="Casw_bow" data-name="Casw bow"><g id="_Grupo_6" data-name="&lt;Grupo&gt;"><g id="_Grupo_7" data-name="&lt;Grupo&gt;"><path id="_Trazado_8" data-name="&lt;Trazado&gt;" class="cls-5" d="M33.5,34.44a.25.25,0,0,1,0,.36h0a.25.25,0,0,1-.36,0L12.78,13.07a.25.25,0,0,1,0-.36h0a.25.25,0,0,1,.35,0Z"/><polygon id="_Trazado_9" data-name="&lt;Trazado&gt;" class="cls-6" points="12.8 13.17 11.65 12.92 13.79 15.2 14.86 15.23 12.98 13.22 12.8 13.17"/><path id="_Trazado_10" data-name="&lt;Trazado&gt;" class="cls-7" d="M33.5,34.44,13.28,12.86c-.17-.18-.39-.25-.49-.15L33.32,34.62Z"/><polygon id="_Trazado_11" data-name="&lt;Trazado&gt;" class="cls-6" points="13.21 12.78 13.04 11.63 15.17 13.9 15.13 14.97 13.25 12.96 13.21 12.78"/></g></g></g><g id="Bow"><rect id="_Trazado_12" data-name="&lt;Trazado&gt;" class="cls-8" x="53.47" y="15.73" width="0.53" height="34.41"/><path id="_Trazado_13" data-name="&lt;Trazado&gt;" class="cls-9" d="M52.93,12.93a4,4,0,0,1,1.34,2.8c0,1.19-.45,2.72-2.21,4.54C47.66,24.8,43,30,44.93,36s3.2,7.47,4.76,9,4.18,2.45,4.4,5.11a5,5,0,0,1-1.11,4s.76-2.85-.31-4.53-5.47-5.63-7.27-8.76-3.54-5-2.87-6.13.87-1.6.73-2.2-1.6-.67.47-4.07,7.47-7.74,8.27-9.74S53.2,17.07,52.93,12.93Z"/></g></g></g></svg>